<svg width="248" height="284" viewBox="0 0 248 284" fill="none" xmlns="http://www.w3.org/2000/svg">
<ellipse cx="233.974" cy="107.535" rx="14.0263" ry="14.0263" fill="#2A66C8"/>
<ellipse cx="209.158" cy="130.912" rx="6.47369" ry="6.47369" fill="#E46E89"/>
<ellipse cx="126.798" cy="11.8684" rx="11.8684" ry="11.8684" fill="#E57686"/>
<ellipse cx="8.11403" cy="115.448" rx="6.11404" ry="6.11404" fill="#5944BB"/>
<ellipse cx="32.5702" cy="181.623" rx="7.55263" ry="7.55264" fill="#E5BA9A"/>
<ellipse cx="108.816" cy="115.447" rx="80.2018" ry="80.2019" fill="#2761C5"/>
<ellipse cx="155.211" cy="83.4387" rx="51.7895" ry="51.7896" fill="#E89265" fill-opacity="0.9"/>
<ellipse cx="88.3158" cy="100.702" rx="66.1754" ry="66.1755" fill="#3637AE" fill-opacity="0.85"/>
<ellipse cx="145.5" cy="143.141" rx="47.8333" ry="46.7545" fill="#DE415E" fill-opacity="0.81"/>
<path d="M89.0351 96.7457H85.7982V94.5878L86.8772 90.272L88.3158 87.0352H90.114L90.4737 87.7545L92.9912 90.6317L93.3509 92.0703H90.114L89.0351 93.5089V96.7457Z" fill="#343DB1"/>
<path d="M98.7456 118.325L95.1491 111.851L94.7895 110.413L96.2281 108.974L98.7456 108.255L100.184 109.334L102.702 118.684L98.7456 118.325Z" fill="#343DB1"/>
<path d="M103.421 125.877L101.982 126.956L103.421 128.035L104.86 128.395L107.377 128.035L108.456 127.316L109.535 126.956L110.614 126.237L112.412 125.158L111.693 124.439L110.974 123L109.175 123.36L108.096 123.72L106.658 124.079L104.86 124.798L103.421 125.877Z" fill="#CC3861"/>
<path d="M117.807 107.176L116.009 108.614C114.864 110.066 114.418 111.032 113.851 112.93C116.04 116.15 117.472 117.283 120.325 118.325C121.359 118.787 121.825 118.772 122.482 118.325C123.53 116.082 124.235 114.899 125.719 112.93H126.439L155.57 123.719L157.368 125.158C163.263 133.193 160.92 135.297 151.254 136.307L120.325 125.518L119.965 126.597L150.535 137.746C151.311 137.552 151.701 137.562 152.333 137.746H155.57L157.728 137.027L159.886 135.948L161.325 134.509H162.763L164.202 133.43V132.711L162.044 131.272V129.114L161.684 128.395C160.723 125.192 159.56 123.902 156.649 122.281L128.237 111.491V110.772C126.46 108.563 125.295 107.592 122.842 106.456H119.605L117.807 107.176Z" fill="white"/>
<path d="M95.1491 90.6318V92.7897V93.1493H95.5088C95.6915 95.15 95.6936 96.2528 95.5088 98.1844C93.6359 98.3732 92.4707 98.3861 90.114 98.1844H84C84.5138 97.2235 84.7589 96.6091 85.0789 95.3072V94.2283H85.4386V93.509V91.7107L85.7982 91.3511V90.6318L86.1579 90.2721V89.1932L86.5175 88.4739C87.1616 87.1928 87.628 86.558 88.6754 85.5967C89.5525 85.1688 90.0252 85.1587 90.8333 85.5967C93.02 86.5315 93.9255 87.7151 95.1491 90.6318Z" fill="white"/>
<path d="M85.7982 97.465H90.114C89.9121 95.9201 89.8978 95.0538 90.114 93.5089H90.4737V92.7896C91.8164 91.8845 92.6797 91.8713 94.4298 92.7896V92.4299V91.7106L94.0702 91.351C93.3599 89.54 92.7141 88.5999 91.193 87.0352C90.3964 86.7118 90.0065 86.7244 89.3947 87.0352C88.3485 87.5285 87.9862 88.0329 87.5965 89.1931H87.2368V89.9124H86.8772V90.6317V92.0703H86.5175V94.5878L86.1579 94.9475V96.7457H85.7982V97.465Z" fill="#0031AA"/>
<path d="M93.7105 108.974V107.535L99.4649 104.658H101.263V104.298H105.939C105.939 104.298 105.219 104.298 107.018 104.658C108.816 105.018 108.99 105.535 110.254 106.097L110.614 106.456L110.974 106.816H114.57L115.289 107.176H117.807L116.009 108.614H113.491V108.254H112.412V107.895L111.693 107.535H111.333L110.974 107.176H106.658V107.895H107.377V108.254H109.535L109.895 108.614H110.614V109.333H105.579V108.974C104.403 109.834 103.924 110.459 103.421 111.851C103.164 114.939 103.616 116.582 105.219 119.404L104.86 120.123H100.544C97.5523 119.069 96.2437 117.747 95.1491 112.93L94.7895 112.57V111.851H94.4298V110.053H94.0702V108.974H93.7105Z" fill="white"/>
<path d="M102.342 108.255H101.982V108.614H101.623V108.974H101.982V109.334H102.342V109.693H102.702V110.053H103.061H103.781V109.693H104.14V109.334H104.5V108.974H104.14V108.614H103.781V108.255H103.421H103.061V107.895H102.342V108.255Z" fill="#0032AB"/>
<path d="M99.8246 108.255C98.0197 108.38 97.0625 108.778 95.5088 110.413C95.918 113.353 96.4478 114.933 98.0263 117.606L98.7456 117.965L99.4649 118.684H100.544L101.263 119.044H104.14C102.845 117.019 102.368 115.838 101.982 113.649L101.623 111.851L101.263 111.132V109.693C100.959 108.827 100.632 108.526 99.8246 108.255Z" fill="#0434C4"/>
<path d="M87.2368 126.237L88.3158 126.956H99.8246L97.307 125.158L96.5877 124.439H95.8684L95.5088 123.72L96.2281 124.079H97.307L98.0263 124.439H103.781C105.168 123.578 106.017 123.167 107.737 122.641C106.843 121.447 106.226 120.883 104.86 120.123L105.219 119.404L110.974 121.921C111.091 120.958 111.168 120.408 111.333 119.404C113.096 117.2 114.039 117.34 115.649 119.763V123L116.009 123.72L120.325 125.518L119.965 126.597C114.018 129.808 110.456 130.847 103.781 131.632C104.174 139.864 102.676 143.645 97.6667 149.255V150.693C98.7083 151.85 99.3339 152.41 100.544 153.211L100.904 153.93L100.544 154.649H96.2281C95.5181 154.493 95.1238 154.202 94.4298 153.211V149.614C92.789 148.39 91.843 148.419 90.114 149.614V155.728L90.4737 156.088L91.5526 157.527C92.5239 159.284 91.9001 159.68 89.3947 159.684C88.4253 159.011 87.943 158.552 87.2368 157.527L86.5175 156.448V154.649L86.1579 152.491V145.658C83.9735 149.058 82.5045 149.392 79.3246 146.377V145.299L80.0439 144.22L81.8421 143.141L82.2018 142.781L80.7632 141.342L75.7281 137.746L75.3684 137.386V137.027L78.2456 133.79L84.7193 126.597L85.0789 126.237H87.2368Z" fill="white"/>
<path d="M80.0439 136.667C79.6669 137.121 79.6342 137.354 80.0439 137.746L85.0789 141.342V130.913L80.0439 136.667Z" fill="#3637AE" fill-opacity="0.85"/>
<path d="M68.1754 101.781C67.0102 103.15 66.3022 103.607 64.9386 103.939C65.0791 104.079 65.2982 103.939 65.2982 104.299V106.456L66.0175 106.816L66.3772 107.535V108.255L66.7368 109.334L69.9737 113.649L70.693 114.009C70.693 114.009 70.672 114.02 71.4123 114.369C72.1525 114.717 72.3374 114.562 72.8509 114.728C74.5847 115.65 75.4303 116.302 76.807 117.606L78.6053 119.044L82.5614 122.281L83.2807 122.641L84 123L85.079 123.36L85.7983 123.72L86.5175 124.079L87.2368 124.799V126.237L88.3158 126.956V125.158H88.6754V123.72H87.2368L86.8772 123.36H86.5175L84.3597 121.921L81.4825 120.123C78.919 118.155 77.5029 116.885 75.0088 114.369L73.9298 113.649L73.2105 113.29L72.1316 112.93C70.6152 112.53 70 111.958 69.2544 110.413H68.8947V108.974H68.1754L67.8158 108.255H67.0965V107.895H66.7368V106.456H67.0965V106.097H67.8158V107.176H68.1754V107.535L68.5351 107.895L69.2544 108.974L68.8947 107.895V107.176V106.816L68.5351 106.456V105.378H68.1754V101.781Z" fill="white"/>
<path d="M70.693 98.5439H68.5351L67.8158 99.6229H68.5351V99.9825H71.4123V99.2632L71.0526 98.9036L70.693 98.5439Z" fill="white"/>
<path d="M66.7369 95.3072L66.0176 96.7458C65.7038 92.3924 65.6077 89.9512 65.6579 85.5967L66.0176 82.7195L66.7369 79.8423L67.0965 77.6844L68.1755 75.1668L70.3333 71.5703L71.4123 70.1317L74.2895 67.9738L78.2456 65.8159L80.7632 65.4563H100.184L102.342 65.8159C103.512 66.0747 104.217 66.3044 105.579 66.8949C107.99 68.0267 109.175 68.9655 110.974 71.2107L108.456 70.4914C105.699 67.6365 103.472 66.8052 98.7456 66.1756H84.3597L81.8421 66.5352L80.4035 66.8949L78.9649 67.6142C73.3305 69.3015 70.8346 72.2072 67.4562 80.5616L66.7369 84.8774V95.3072Z" fill="white"/>
<path d="M77.1667 89.9124C71.3444 94.3165 68.8826 97.4164 65.2982 103.579H64.9386V101.062L66.0175 99.623L67.0965 97.1054L68.5351 95.6668L71.0526 92.7896L73.5702 90.2721L76.0877 88.8335L80.7632 84.8773L82.5614 82.3598L84 79.4826L86.5175 75.5265L87.9561 73.7282L89.7544 71.93L92.2719 70.1317L95.5088 69.0528L98.0263 68.6931L100.904 69.0528L107.737 70.4914L110.614 71.2107L112.772 71.5703L119.246 73.3686L122.842 75.1668L124.64 77.3247V79.123L121.763 82.0002L116.728 85.237C115.23 85.7118 114.61 86.2753 113.851 87.7545V90.9914H113.132C113.664 87.355 112.651 85.7756 108.456 83.7984C102.21 81.0889 98.0393 81.1954 89.7544 83.4388C83.9948 85.3359 81.337 86.8269 77.1667 89.9124Z" fill="white"/>
<path d="M104.14 125.877C102.84 126.119 102.553 126.613 102.702 128.035V128.395H103.061V128.755H106.658V128.395C108.768 127.89 109.801 127.437 111.333 126.237L111.693 125.877H112.053V125.518H112.772C113.034 125.147 113.05 124.913 112.772 124.439H112.412V124.079V123.72H112.053V123.36H111.693H110.614C108.222 123.65 106.793 124.263 104.14 125.877Z" fill="#DE415E" fill-opacity="0.81"/>
<path d="M84.1921 98.0425C84.0947 98.0425 83.9693 98.0947 83.9693 98.2096C83.9693 98.3159 83.8329 98.3847 83.8207 98.4882C83.8013 98.6535 83.4904 98.7815 83.3585 98.8513C83.256 98.9056 83.195 98.9884 83.0944 99.0432C83.0049 99.0921 82.8753 99.1636 82.8096 99.2228C82.6907 99.3298 82.5081 99.3702 82.3742 99.4539C82.1787 99.5761 81.9749 99.7119 81.78 99.8459C81.6648 99.9251 81.5277 100.013 81.4065 100.077C81.3617 100.101 81.3282 100.081 81.2868 100.114C81.2491 100.144 81.1546 100.212 81.1094 100.232C80.9287 100.309 80.6472 100.475 80.5316 100.624C80.4756 100.696 80.272 100.807 80.1891 100.836C80.0954 100.87 80.1474 100.914 80.0983 100.968C80.0677 101.002 79.9877 100.982 79.958 101.034C79.9351 101.074 79.7569 101.234 79.7351 101.237C79.6438 101.247 79.554 101.407 79.4751 101.46" stroke="white" stroke-linecap="round"/>
<path d="M99.1367 100.191C99.2514 100.191 99.4297 100.13 99.5271 100.072C99.6794 99.9807 99.8085 99.9984 99.9579 99.9276C100.015 99.9004 100.094 99.7907 100.12 99.7831C100.212 99.7568 100.342 99.7806 100.437 99.7806C100.839 99.7806 101.217 99.6951 101.59 99.6082C101.866 99.5441 102.245 99.4833 102.49 99.3472C102.8 99.1749 103.472 99.3979 103.79 99.4156C103.998 99.4272 104.21 99.5235 104.409 99.5499C104.717 99.5911 105.653 99.5981 105.341 99.5981" stroke="white" stroke-opacity="0.16" stroke-linecap="round"/>
<path d="M90.6965 98.5031C90.9458 98.5031 91.1523 98.5249 91.391 98.6045C91.5608 98.6611 91.8295 98.5726 91.974 98.6628C92.1067 98.7458 92.5464 98.727 92.7039 98.7313C92.9544 98.738 93.2061 98.7313 93.4567 98.7313C93.8071 98.7313 94.1434 98.5488 94.4731 98.5488C94.619 98.5488 94.7604 98.4575 94.9166 98.4575C95.0915 98.4575 95.2664 98.4575 95.4413 98.4575" stroke="white" stroke-opacity="0.16" stroke-linecap="round"/>
<path d="M95.715 98.1839C95.9018 98.1605 95.5595 97.1449 95.497 96.9419C95.4336 96.7357 95.4413 96.3423 95.4413 96.1309" stroke="white" stroke-opacity="0.16" stroke-linecap="round"/>
<path d="M102.662 108.002C103.008 108.023 103.985 108.244 103.985 108.709C103.985 108.819 104.168 108.806 104.168 108.96C104.168 109.112 104.168 109.265 104.168 109.417C104.168 109.556 103.705 109.736 103.575 109.736C102.955 109.736 102.512 109.633 102.069 109.214C102.005 109.153 101.414 108.504 101.681 108.504C101.743 108.504 101.805 108.504 101.866 108.504C101.974 108.504 101.953 108.417 102.023 108.413C102.221 108.401 102.16 108.216 102.16 108.048" stroke="#343DB1" stroke-linecap="round"/>
<path d="M102.023 107.957C101.704 107.957 101.858 108.091 101.704 108.322" stroke="#343DB1" stroke-linecap="round"/>
<path d="M102.388 108.687C102.613 108.722 102.897 109.032 103.07 109.184C103.114 109.222 103.173 109.255 103.227 109.277C103.331 109.319 103.01 109.217 102.916 109.158C102.813 109.095 102.129 108.534 102.571 108.755C102.665 108.802 102.739 108.86 102.845 108.869C102.994 108.882 103.071 109.027 103.212 109.069C103.644 109.199 103.188 108.91 103.053 108.778C102.996 108.723 102.653 108.418 102.695 108.418C102.948 108.418 103.127 108.657 103.362 108.687C103.374 108.688 103.338 108.686 103.326 108.689C103.278 108.703 103.338 108.783 103.349 108.801C103.421 108.914 103.526 109.003 103.62 109.097" stroke="#343DB1" stroke-linecap="round"/>
<path d="M102.214 107.694H102.527" stroke="#343DB1" stroke-width="0.2" stroke-linecap="round"/>
<path d="M102.354 107.818C102.323 107.815 102.299 107.801 102.268 107.801C102.24 107.801 102.215 107.803 102.189 107.793" stroke="#343DB1" stroke-width="0.2" stroke-linecap="round"/>
<path d="M102.428 107.661C102.392 107.661 102.361 107.636 102.325 107.636C102.293 107.636 102.263 107.628 102.23 107.628C102.163 107.628 102.095 107.628 102.028 107.628C101.962 107.628 101.894 107.636 101.83 107.636C101.797 107.636 101.776 107.649 101.752 107.673C101.734 107.689 101.719 107.699 101.698 107.71C101.687 107.717 101.694 107.729 101.677 107.737C101.662 107.745 101.662 107.767 101.644 107.768C101.626 107.769 101.619 107.787 101.603 107.797C101.579 107.81 101.575 107.806 101.557 107.829C101.546 107.844 101.527 107.854 101.516 107.869C101.502 107.888 101.463 107.94 101.463 107.963C101.463 107.99 101.441 108.072 101.425 108.093C101.387 108.142 101.359 108.221 101.347 108.284C101.326 108.395 101.261 108.521 101.331 108.626" stroke="#343DB1" stroke-width="0.2" stroke-linecap="round"/>
<path d="M104.235 108.478C104.237 108.514 104.268 108.542 104.285 108.573C104.296 108.593 104.313 108.606 104.326 108.622C104.327 108.623 104.361 108.639 104.338 108.634C104.257 108.616 104.176 108.491 104.153 108.42" stroke="#343DB1" stroke-width="0.2" stroke-linecap="round"/>
<path d="M104.21 108.395C104.267 108.395 104.291 108.449 104.309 108.499C104.337 108.574 104.376 108.648 104.392 108.725" stroke="#343DB1" stroke-width="0.2" stroke-linecap="round"/>
<path d="M104.153 108.247C104.212 108.253 104.233 108.405 104.26 108.445" stroke="#343DB1" stroke-width="0.2" stroke-linecap="round"/>
<path d="M103.979 108.156C104.017 108.156 104.118 108.203 104.136 108.239" stroke="#343DB1" stroke-width="0.2" stroke-linecap="round"/>
<path d="M102.585 107.669C102.505 107.669 102.434 107.628 102.354 107.628" stroke="#343DB1" stroke-width="0.2" stroke-linecap="round"/>
<path d="M103.603 112.245C103.654 112.477 104.04 112.582 104.194 112.736C104.386 112.928 104.503 113.213 104.705 113.397C104.878 113.555 105.395 113.778 105.632 113.778C106.278 113.778 106.924 113.778 107.57 113.778C108.037 113.778 108.675 114.267 109.008 114.544C109.384 114.858 110.251 115.262 110.456 115.672" stroke="#FEFEFE" stroke-opacity="0.19" stroke-linecap="round"/>
<path d="M103.964 112.606C104.731 113.108 105.209 113.958 106.148 113.958C106.832 113.958 107.456 114.033 108.021 114.409" stroke="#FEFEFE" stroke-opacity="0.37" stroke-linecap="round"/>
<path d="M108.292 114.229C108.317 114.453 109.154 114.875 109.374 115.04" stroke="#FEFEFE" stroke-opacity="0.37" stroke-linecap="round"/>
<path d="M110.614 88.8335C110.39 88.5881 110.234 88.5056 109.895 88.4739C108.684 88.5267 108.362 89.2732 108.096 91.3511H107.737V92.0704L107.377 92.7897V95.6669H107.018V99.2634V99.623H109.535V96.7458C109.566 95.8849 109.637 95.4111 109.895 94.5879L110.254 94.2283L110.614 93.8686H112.053C112.316 93.8778 112.397 93.8017 112.412 93.509C112.471 92.9469 112.471 92.6325 112.412 92.0704C112.002 90.6573 111.634 89.9355 110.614 88.8335Z" fill="#0334B4"/>
<path d="M105.99 99.8092C106.228 99.8092 106.468 99.8267 106.708 99.8267C106.857 99.8267 107.007 99.8092 107.163 99.8092C107.514 99.8092 107.864 99.8092 108.215 99.8092C108.393 99.8092 108.56 99.7917 108.74 99.7917C108.875 99.7917 109.021 99.8092 109.161 99.8092C109.322 99.8092 109.473 99.7742 109.634 99.7742C109.716 99.7742 109.798 99.7886 109.875 99.7917C109.944 99.7944 110.067 99.806 110.124 99.8442" stroke="#F6F6F6" stroke-opacity="0.17" stroke-width="0.5" stroke-linecap="round"/>
<path d="M105.579 99.6231H107.018V95.6669H107.377V92.7897L107.737 92.0704V91.3511H108.096L108.456 89.9125C108.702 88.8606 109.009 88.5334 109.895 88.4739C110.212 88.527 110.377 88.6087 110.643 88.8673C111.715 90.116 112.088 90.823 112.412 92.0704V93.509C112.4 93.7989 112.326 93.8829 112.053 93.8687H110.614L109.895 94.588C109.643 95.5637 109.571 96.1154 109.535 97.1055V99.6231C113.572 101.151 115.413 102.754 117.807 107.176L119.605 106.456C117.862 103.939 116.664 102.523 113.851 99.9827V97.8248V92.0704V90.9915H113.132V90.2722C112.354 89.5543 111.881 88.9206 110.974 87.395C109.717 86.2127 109.081 86.2998 108.096 88.1143V88.4739H107.737V89.9125H107.377V91.3511L107.018 91.7108V92.4301L106.658 92.7897V93.8687L106.298 94.588V95.3073C105.688 96.8627 105.539 97.8111 105.579 99.6231Z" fill="white"/>
<path d="M5.782 234.376C5.782 234.376 6.05733 234.376 6.608 234.376C7.15867 234.337 7.80767 234.435 8.555 234.671C9.30233 234.868 9.971 235.281 10.561 235.91C11.1903 236.5 11.564 237.424 11.682 238.683C11.7607 239.666 11.918 240.945 12.154 242.518C12.39 244.052 12.6457 245.665 12.921 247.356C13.1963 249.047 13.452 250.64 13.688 252.135C13.9633 253.59 14.1797 254.79 14.337 255.734C14.5337 256.678 14.632 257.15 14.632 257.15L17.169 247.71C17.169 247.71 17.2673 247.435 17.464 246.884C17.6607 246.294 18.0147 245.724 18.526 245.173C19.0767 244.622 19.883 244.347 20.945 244.347C22.007 244.347 22.8133 244.563 23.364 244.996C23.9147 245.389 24.308 245.881 24.544 246.471C24.8193 247.061 25.0357 247.631 25.193 248.182C25.311 248.575 25.488 249.244 25.724 250.188C25.9993 251.093 26.255 252.056 26.491 253.079C26.7663 254.102 27.0023 254.967 27.199 255.675C27.3957 256.383 27.494 256.737 27.494 256.737L28.025 251.84L30.503 234.494C30.503 234.494 30.621 234.238 30.857 233.727C31.1323 233.176 31.6437 232.645 32.391 232.134C33.1777 231.623 34.338 231.426 35.872 231.544C38.1927 231.701 39.6087 232.173 40.12 232.96C40.6707 233.747 40.7493 234.71 40.356 235.851C40.1593 236.402 39.8643 237.601 39.471 239.45C39.0777 241.259 38.6253 243.442 38.114 245.999C37.6027 248.556 37.111 251.25 36.639 254.082C36.167 256.875 35.754 259.53 35.4 262.047C35.2427 263.345 34.8887 264.348 34.338 265.056C33.8267 265.725 33.276 266.197 32.686 266.472C32.096 266.747 31.5847 266.905 31.152 266.944C30.7193 266.983 30.503 267.003 30.503 267.003C30.503 267.003 30.2473 267.003 29.736 267.003C29.2247 267.042 28.5953 266.964 27.848 266.767C27.14 266.57 26.432 266.157 25.724 265.528C25.0553 264.899 24.5243 263.915 24.131 262.578C23.3837 259.903 22.7347 257.661 22.184 255.852C21.6333 254.043 21.358 253.138 21.358 253.138L18.054 263.168C18.054 263.168 17.936 263.404 17.7 263.876C17.464 264.348 16.992 264.82 16.284 265.292C15.6153 265.764 14.6123 266 13.275 266C11.269 266 9.87267 265.685 9.086 265.056C8.33867 264.387 7.74867 263.325 7.316 261.87C7.198 261.359 6.962 260.454 6.608 259.156C6.254 257.819 5.86067 256.265 5.428 254.495C4.99533 252.725 4.543 250.916 4.071 249.067C3.599 247.179 3.16633 245.448 2.773 243.875C2.37967 242.262 2.04533 240.964 1.77 239.981C1.534 238.958 1.416 238.447 1.416 238.447C1.416 238.447 1.37667 238.27 1.298 237.916C1.21933 237.562 1.25867 237.149 1.416 236.677C1.57333 236.166 1.96667 235.694 2.596 235.261C3.26467 234.828 4.32667 234.533 5.782 234.376ZM43.4738 236.087C43.4738 236.087 43.4344 235.93 43.3558 235.615C43.2771 235.261 43.2968 234.848 43.4148 234.376C43.5721 233.904 43.9261 233.471 44.4768 233.078C45.0668 232.685 45.9911 232.429 47.2498 232.311C48.5084 232.193 49.9244 232.095 51.4978 232.016C53.1104 231.937 54.6444 231.859 56.0998 231.78C57.5944 231.701 58.8138 231.642 59.7578 231.603C60.7018 231.564 61.1738 231.544 61.1738 231.544C61.1738 231.544 61.4294 231.564 61.9408 231.603C62.4914 231.603 63.1208 231.682 63.8288 231.839C64.5761 231.957 65.2448 232.213 65.8348 232.606C66.4248 232.96 66.7788 233.491 66.8968 234.199C67.0148 234.907 66.8771 235.458 66.4838 235.851C66.0904 236.244 65.6184 236.539 65.0678 236.736C64.5171 236.893 64.0254 236.992 63.5928 237.031C63.1601 237.07 62.9438 237.09 62.9438 237.09L53.5038 237.621C53.5038 237.621 53.5628 237.877 53.6808 238.388C53.7988 238.899 53.9168 239.489 54.0348 240.158C54.1921 240.787 54.2904 241.338 54.3298 241.81C54.3691 242.243 54.4084 242.813 54.4478 243.521C54.4871 244.19 54.5264 244.799 54.5658 245.35C54.6051 245.861 54.6248 246.117 54.6248 246.117H58.9908C58.9908 246.117 59.2071 246.137 59.6398 246.176C60.0724 246.176 60.5641 246.255 61.1148 246.412C61.7048 246.53 62.2161 246.727 62.6488 247.002C63.0814 247.277 63.3174 247.69 63.3568 248.241C63.3961 248.949 63.1208 249.48 62.5308 249.834C61.9801 250.188 61.3901 250.424 60.7608 250.542C60.1708 250.621 59.7971 250.68 59.6398 250.719C59.5218 250.719 59.2071 250.739 58.6958 250.778C58.1844 250.778 57.6141 250.778 56.9848 250.778C56.3948 250.778 55.8638 250.778 55.3918 250.778C54.9198 250.778 54.6838 250.778 54.6838 250.778C54.6838 250.778 54.6838 251.073 54.6838 251.663C54.7231 252.214 54.7624 252.863 54.8018 253.61C54.8411 254.357 54.8411 255.006 54.8018 255.557C54.8018 256.068 54.7821 256.698 54.7428 257.445C54.7034 258.153 54.6641 258.782 54.6248 259.333C54.5854 259.844 54.5658 260.1 54.5658 260.1L62.5308 259.805C62.5308 259.805 62.7864 259.805 63.2978 259.805C63.8091 259.766 64.4188 259.805 65.1268 259.923C65.8348 260.041 66.4641 260.277 67.0148 260.631C67.5654 260.985 67.8604 261.516 67.8998 262.224C67.9784 262.932 67.7818 263.502 67.3098 263.935C66.8378 264.368 66.2871 264.682 65.6578 264.879C65.0284 265.076 64.4581 265.213 63.9468 265.292C63.4748 265.331 63.2388 265.351 63.2388 265.351L50.4948 266C50.4948 266 50.1801 266 49.5508 266C48.9608 266.039 48.2724 266 47.4858 265.882C46.6991 265.725 46.0108 265.43 45.4208 264.997C44.8308 264.525 44.5554 263.817 44.5948 262.873C44.6734 261.614 44.7521 259.648 44.8308 256.973C44.9094 254.259 44.8701 251.093 44.7128 247.474C44.5554 243.855 44.1424 240.06 43.4738 236.087ZM83.4186 257.74C83.458 257.74 83.812 257.74 84.4806 257.74C85.1493 257.701 85.9753 257.681 86.9586 257.681C87.942 257.642 88.9056 257.622 89.8496 257.622C90.833 257.583 91.659 257.563 92.3276 257.563C92.9963 257.524 93.3306 257.504 93.3306 257.504C93.3306 257.504 93.547 257.504 93.9796 257.504C94.4123 257.504 94.9236 257.583 95.5136 257.74C96.1036 257.858 96.615 258.133 97.0476 258.566C97.5196 258.999 97.7753 259.667 97.8146 260.572C97.854 261.437 97.5983 262.126 97.0476 262.637C96.5363 263.109 95.907 263.443 95.1596 263.64C94.4516 263.797 93.8026 263.896 93.2126 263.935C92.662 263.974 92.3866 263.994 92.3866 263.994C92.3866 263.994 91.9736 264.033 91.1476 264.112C90.361 264.151 89.3186 264.25 88.0206 264.407C86.7226 264.564 85.3066 264.781 83.7726 265.056C82.2386 265.292 80.7636 265.607 79.3476 266C77.9316 266.393 76.7516 266.531 75.8076 266.413C74.903 266.334 74.195 266.138 73.6836 265.823C73.1723 265.469 72.7986 265.115 72.5626 264.761C72.366 264.368 72.2676 264.112 72.2676 263.994C72.2283 263.719 72.307 263.384 72.5036 262.991C72.7003 262.558 73.074 262.263 73.6246 262.106C73.8213 262.067 73.9196 261.516 73.9196 260.454C73.9196 259.353 73.841 257.956 73.6836 256.265C73.5656 254.534 73.3886 252.666 73.1526 250.66C72.9166 248.654 72.6413 246.668 72.3266 244.701C72.0513 242.734 71.776 240.984 71.5006 239.45C71.2253 237.916 70.95 236.775 70.6746 236.028C70.2813 234.887 70.242 234.002 70.5566 233.373C70.8713 232.744 71.304 232.291 71.8546 232.016C72.4446 231.701 72.9756 231.505 73.4476 231.426C73.959 231.347 74.2146 231.308 74.2146 231.308C74.2146 231.308 74.4703 231.288 74.9816 231.249C75.5323 231.17 76.1616 231.21 76.8696 231.367C77.617 231.485 78.3053 231.819 78.9346 232.37C79.6033 232.881 80.0753 233.747 80.3506 234.966C80.7046 236.579 81.1176 238.486 81.5896 240.689C82.101 242.852 82.5336 245.35 82.8876 248.182C83.281 251.014 83.458 254.2 83.4186 257.74ZM99.1896 236.087C99.1896 236.087 99.1503 235.93 99.0716 235.615C98.9929 235.261 99.0126 234.848 99.1306 234.376C99.2879 233.904 99.6419 233.471 100.193 233.078C100.783 232.685 101.707 232.429 102.966 232.311C104.224 232.193 105.64 232.095 107.214 232.016C108.826 231.937 110.36 231.859 111.816 231.78C113.31 231.701 114.53 231.642 115.474 231.603C116.418 231.564 116.89 231.544 116.89 231.544C116.89 231.544 117.145 231.564 117.657 231.603C118.207 231.603 118.837 231.682 119.545 231.839C120.292 231.957 120.961 232.213 121.551 232.606C122.141 232.96 122.495 233.491 122.613 234.199C122.731 234.907 122.593 235.458 122.2 235.851C121.806 236.244 121.334 236.539 120.784 236.736C120.233 236.893 119.741 236.992 119.309 237.031C118.876 237.07 118.66 237.09 118.66 237.09L109.22 237.621C109.22 237.621 109.279 237.877 109.397 238.388C109.515 238.899 109.633 239.489 109.751 240.158C109.908 240.787 110.006 241.338 110.046 241.81C110.085 242.243 110.124 242.813 110.164 243.521C110.203 244.19 110.242 244.799 110.282 245.35C110.321 245.861 110.341 246.117 110.341 246.117H114.707C114.707 246.117 114.923 246.137 115.356 246.176C115.788 246.176 116.28 246.255 116.831 246.412C117.421 246.53 117.932 246.727 118.365 247.002C118.797 247.277 119.033 247.69 119.073 248.241C119.112 248.949 118.837 249.48 118.247 249.834C117.696 250.188 117.106 250.424 116.477 250.542C115.887 250.621 115.513 250.68 115.356 250.719C115.238 250.719 114.923 250.739 114.412 250.778C113.9 250.778 113.33 250.778 112.701 250.778C112.111 250.778 111.58 250.778 111.108 250.778C110.636 250.778 110.4 250.778 110.4 250.778C110.4 250.778 110.4 251.073 110.4 251.663C110.439 252.214 110.478 252.863 110.518 253.61C110.557 254.357 110.557 255.006 110.518 255.557C110.518 256.068 110.498 256.698 110.459 257.445C110.419 258.153 110.38 258.782 110.341 259.333C110.301 259.844 110.282 260.1 110.282 260.1L118.247 259.805C118.247 259.805 118.502 259.805 119.014 259.805C119.525 259.766 120.135 259.805 120.843 259.923C121.551 260.041 122.18 260.277 122.731 260.631C123.281 260.985 123.576 261.516 123.616 262.224C123.694 262.932 123.498 263.502 123.026 263.935C122.554 264.368 122.003 264.682 121.374 264.879C120.744 265.076 120.174 265.213 119.663 265.292C119.191 265.331 118.955 265.351 118.955 265.351L106.211 266C106.211 266 105.896 266 105.267 266C104.677 266.039 103.988 266 103.202 265.882C102.415 265.725 101.727 265.43 101.137 264.997C100.547 264.525 100.271 263.817 100.311 262.873C100.389 261.614 100.468 259.648 100.547 256.973C100.625 254.259 100.586 251.093 100.429 247.474C100.271 243.855 99.8583 240.06 99.1896 236.087ZM145.801 243.049C144.267 242.931 143.166 242.616 142.497 242.105C141.868 241.594 141.494 241.122 141.376 240.689C141.258 240.217 141.199 239.981 141.199 239.981C141.199 239.981 141.16 239.706 141.081 239.155C141.003 238.604 140.806 238.054 140.491 237.503C140.177 236.952 139.626 236.657 138.839 236.618C138.249 236.579 137.777 236.933 137.423 237.68C137.069 238.388 136.794 239.352 136.597 240.571C136.401 241.79 136.263 243.147 136.184 244.642C136.145 246.097 136.125 247.572 136.125 249.067C136.165 251.034 136.263 252.941 136.42 254.79C136.617 256.599 136.932 258.074 137.364 259.215C137.836 260.356 138.485 260.926 139.311 260.926C139.941 260.926 140.413 260.651 140.727 260.1C141.042 259.51 141.239 258.861 141.317 258.153C141.435 257.445 141.494 256.816 141.494 256.265C141.494 255.714 141.494 255.439 141.494 255.439C141.494 255.439 141.258 255.459 140.786 255.498C140.354 255.537 139.901 255.459 139.429 255.262C138.957 255.026 138.721 254.534 138.721 253.787C138.721 253 138.879 252.469 139.193 252.194C139.547 251.919 139.882 251.761 140.196 251.722C140.55 251.683 140.727 251.663 140.727 251.663H145.86C145.86 251.663 146.116 251.663 146.627 251.663C147.139 251.663 147.729 251.761 148.397 251.958C149.066 252.115 149.656 252.43 150.167 252.902C150.679 253.335 150.954 254.003 150.993 254.908C151.072 257.111 150.757 258.94 150.049 260.395C149.341 261.811 148.358 262.932 147.099 263.758C145.88 264.584 144.503 265.174 142.969 265.528C141.475 265.843 139.941 266 138.367 266C136.794 266 135.299 265.725 133.883 265.174C132.467 264.623 131.209 263.66 130.107 262.283C129.006 260.867 128.101 258.92 127.393 256.442C126.725 253.964 126.351 250.817 126.272 247.002C126.194 243.934 126.489 241.436 127.157 239.509C127.826 237.582 128.691 236.087 129.753 235.025C130.815 233.963 131.917 233.216 133.057 232.783C134.237 232.311 135.299 232.016 136.243 231.898C137.187 231.78 137.856 231.701 138.249 231.662C138.721 231.623 139.488 231.662 140.55 231.78C141.612 231.898 142.753 232.173 143.972 232.606C145.192 232.999 146.313 233.609 147.335 234.435C148.397 235.261 149.184 236.362 149.695 237.739C150.207 239.116 150.305 240.178 149.99 240.925C149.676 241.633 149.184 242.144 148.515 242.459C147.847 242.774 147.217 242.951 146.627 242.99C146.077 243.029 145.801 243.049 145.801 243.049ZM153.638 236.087C153.638 236.087 153.599 235.93 153.52 235.615C153.441 235.261 153.461 234.848 153.579 234.376C153.736 233.904 154.09 233.471 154.641 233.078C155.231 232.685 156.155 232.429 157.414 232.311C158.673 232.193 160.089 232.095 161.662 232.016C163.275 231.937 164.809 231.859 166.264 231.78C167.759 231.701 168.978 231.642 169.922 231.603C170.866 231.564 171.338 231.544 171.338 231.544C171.338 231.544 171.594 231.564 172.105 231.603C172.656 231.603 173.285 231.682 173.993 231.839C174.74 231.957 175.409 232.213 175.999 232.606C176.589 232.96 176.943 233.491 177.061 234.199C177.179 234.907 177.041 235.458 176.648 235.851C176.255 236.244 175.783 236.539 175.232 236.736C174.681 236.893 174.19 236.992 173.757 237.031C173.324 237.07 173.108 237.09 173.108 237.09L163.668 237.621C163.668 237.621 163.727 237.877 163.845 238.388C163.963 238.899 164.081 239.489 164.199 240.158C164.356 240.787 164.455 241.338 164.494 241.81C164.533 242.243 164.573 242.813 164.612 243.521C164.651 244.19 164.691 244.799 164.73 245.35C164.769 245.861 164.789 246.117 164.789 246.117H169.155C169.155 246.117 169.371 246.137 169.804 246.176C170.237 246.176 170.728 246.255 171.279 246.412C171.869 246.53 172.38 246.727 172.813 247.002C173.246 247.277 173.482 247.69 173.521 248.241C173.56 248.949 173.285 249.48 172.695 249.834C172.144 250.188 171.554 250.424 170.925 250.542C170.335 250.621 169.961 250.68 169.804 250.719C169.686 250.719 169.371 250.739 168.86 250.778C168.349 250.778 167.778 250.778 167.149 250.778C166.559 250.778 166.028 250.778 165.556 250.778C165.084 250.778 164.848 250.778 164.848 250.778C164.848 250.778 164.848 251.073 164.848 251.663C164.887 252.214 164.927 252.863 164.966 253.61C165.005 254.357 165.005 255.006 164.966 255.557C164.966 256.068 164.946 256.698 164.907 257.445C164.868 258.153 164.828 258.782 164.789 259.333C164.75 259.844 164.73 260.1 164.73 260.1L172.695 259.805C172.695 259.805 172.951 259.805 173.462 259.805C173.973 259.766 174.583 259.805 175.291 259.923C175.999 260.041 176.628 260.277 177.179 260.631C177.73 260.985 178.025 261.516 178.064 262.224C178.143 262.932 177.946 263.502 177.474 263.935C177.002 264.368 176.451 264.682 175.822 264.879C175.193 265.076 174.622 265.213 174.111 265.292C173.639 265.331 173.403 265.351 173.403 265.351L160.659 266C160.659 266 160.344 266 159.715 266C159.125 266.039 158.437 266 157.65 265.882C156.863 265.725 156.175 265.43 155.585 264.997C154.995 264.525 154.72 263.817 154.759 262.873C154.838 261.614 154.916 259.648 154.995 256.973C155.074 254.259 155.034 251.093 154.877 247.474C154.72 243.855 154.307 240.06 153.638 236.087ZM188.863 266C187.447 266 186.365 265.843 185.618 265.528C184.91 265.174 184.398 264.781 184.084 264.348C183.808 263.876 183.651 263.483 183.612 263.168C183.612 262.814 183.612 262.637 183.612 262.637C183.612 262.637 183.553 262.047 183.435 260.867C183.317 259.687 183.159 258.173 182.963 256.324C182.766 254.436 182.55 252.43 182.314 250.306C182.117 248.143 181.901 246.078 181.665 244.111C181.468 242.105 181.311 240.414 181.193 239.037C181.075 237.621 180.996 236.736 180.957 236.382C180.917 235.359 181.134 234.474 181.606 233.727C182.117 232.94 183.336 232.488 185.264 232.37C186.562 232.291 187.604 232.488 188.391 232.96C189.177 233.432 189.748 233.924 190.102 234.435C190.456 234.907 190.633 235.143 190.633 235.143L196.179 248.595L198.362 252.666L197.005 241.456C197.005 241.456 197.005 240.807 197.005 239.509C197.044 238.211 197.123 236.657 197.241 234.848C197.319 233.943 197.614 233.255 198.126 232.783C198.637 232.311 199.207 231.977 199.837 231.78C200.505 231.583 201.076 231.485 201.548 231.485C202.059 231.446 202.315 231.426 202.315 231.426C202.315 231.426 202.531 231.446 202.964 231.485C203.436 231.524 203.967 231.701 204.557 232.016C205.147 232.291 205.658 232.803 206.091 233.55C206.563 234.258 206.779 235.3 206.74 236.677C206.7 238.368 206.759 240.296 206.917 242.459C207.074 244.583 207.271 246.766 207.507 249.008C207.782 251.25 208.038 253.354 208.274 255.321C208.549 257.248 208.785 258.861 208.982 260.159C209.218 261.457 209.355 262.263 209.395 262.578C209.473 263.05 209.493 263.62 209.454 264.289C209.414 264.958 209.1 265.548 208.51 266.059C207.959 266.57 206.917 266.846 205.383 266.885C203.849 266.885 202.708 266.708 201.961 266.354C201.213 266 200.702 265.646 200.427 265.292C200.191 264.899 200.073 264.702 200.073 264.702L191.223 248.831C191.223 248.831 191.301 249.224 191.459 250.011C191.616 250.798 191.793 251.82 191.99 253.079C192.226 254.338 192.442 255.695 192.639 257.15C192.875 258.605 193.052 260.002 193.17 261.339C193.288 262.676 193.13 263.679 192.698 264.348C192.304 264.977 191.793 265.41 191.164 265.646C190.574 265.882 190.043 266 189.571 266C189.099 266 188.863 266 188.863 266ZM214.651 262.165C214.493 259.844 214.316 257.425 214.12 254.908C213.923 252.351 213.726 249.913 213.53 247.592C213.372 245.271 213.235 243.305 213.117 241.692C212.999 240.04 212.9 238.978 212.822 238.506C212.704 237.601 212.743 236.992 212.94 236.677C213.176 236.323 213.294 236.146 213.294 236.146C213.294 236.146 213.156 236.008 212.881 235.733C212.605 235.418 212.468 235.084 212.468 234.73C212.468 234.101 212.841 233.589 213.589 233.196C214.375 232.803 215.26 232.508 216.244 232.311C217.227 232.114 218.092 231.977 218.84 231.898C219.626 231.819 220.02 231.78 220.02 231.78C220.02 231.78 220.413 231.76 221.2 231.721C221.986 231.682 222.989 231.721 224.209 231.839C225.467 231.957 226.805 232.272 228.221 232.783C229.676 233.255 231.053 234.022 232.351 235.084C233.688 236.146 234.809 237.601 235.714 239.45C236.618 241.259 237.169 243.58 237.366 246.412C237.602 249.755 237.444 252.568 236.894 254.849C236.382 257.13 235.596 258.999 234.534 260.454C233.511 261.87 232.331 262.971 230.994 263.758C229.656 264.545 228.26 265.095 226.805 265.41C225.389 265.685 224.032 265.862 222.734 265.941C221.475 265.98 220.374 266 219.43 266C218.053 266 217.011 265.803 216.303 265.41C215.634 265.017 215.182 264.584 214.946 264.112C214.749 263.601 214.651 263.148 214.651 262.755C214.651 262.362 214.651 262.165 214.651 262.165ZM220.964 237.09L223.56 260.985C223.56 260.985 223.737 260.965 224.091 260.926C224.445 260.887 224.877 260.71 225.389 260.395C225.939 260.08 226.451 259.51 226.923 258.684C227.434 257.858 227.827 256.698 228.103 255.203C228.378 253.669 228.437 251.683 228.28 249.244C228.122 246.176 227.788 243.796 227.277 242.105C226.805 240.374 226.215 239.135 225.507 238.388C224.838 237.641 224.11 237.208 223.324 237.09C222.537 236.972 221.75 236.972 220.964 237.09Z" fill="#0373AA"/>
</svg>
